<mxfile host="Electron" modified="2024-03-01T15:23:39.743Z" agent="Mozilla/5.0 (Windows NT 10.0; Win64; x64) AppleWebKit/537.36 (KHTML, like Gecko) draw.io/23.1.5 Chrome/120.0.6099.109 Electron/28.1.0 Safari/537.36" etag="bC22K1G6GK5_SRj_Nu8b" version="23.1.5" type="device" pages="3">
  <diagram name="forward" id="av6LomOEzZGBGBy1tRRR">
    <mxGraphModel dx="882" dy="669" grid="1" gridSize="10" guides="1" tooltips="1" connect="1" arrows="1" fold="1" page="1" pageScale="1" pageWidth="827" pageHeight="1169" math="0" shadow="0">
      <root>
        <mxCell id="0" />
        <mxCell id="1" parent="0" />
        <mxCell id="uc_yFwmo9GonSLipWm6f-7" value="" style="rounded=0;whiteSpace=wrap;html=1;fillColor=#dae8fc;strokeColor=none;" parent="1" vertex="1">
          <mxGeometry x="200" y="120" width="160" height="240" as="geometry" />
        </mxCell>
        <mxCell id="uc_yFwmo9GonSLipWm6f-3" value="" style="endArrow=blockThin;html=1;rounded=0;endFill=1;startArrow=blockThin;startFill=1;" parent="1" edge="1">
          <mxGeometry width="50" height="50" relative="1" as="geometry">
            <mxPoint x="320" y="360" as="sourcePoint" />
            <mxPoint x="320" y="120" as="targetPoint" />
          </mxGeometry>
        </mxCell>
        <mxCell id="uc_yFwmo9GonSLipWm6f-5" value="" style="endArrow=blockThin;html=1;rounded=0;endFill=1;startArrow=blockThin;startFill=1;" parent="1" edge="1">
          <mxGeometry width="50" height="50" relative="1" as="geometry">
            <mxPoint x="200" y="240" as="sourcePoint" />
            <mxPoint x="440" y="240" as="targetPoint" />
          </mxGeometry>
        </mxCell>
        <mxCell id="uc_yFwmo9GonSLipWm6f-6" value="" style="ellipse;whiteSpace=wrap;html=1;fillColor=none;strokeColor=default;" parent="1" vertex="1">
          <mxGeometry x="280" y="200" width="80" height="80" as="geometry" />
        </mxCell>
        <mxCell id="uc_yFwmo9GonSLipWm6f-8" value="1" style="text;html=1;align=center;verticalAlign=middle;resizable=0;points=[];autosize=1;strokeColor=none;fillColor=none;fontFamily=Garamond;fontSize=16;" parent="1" vertex="1">
          <mxGeometry x="351" y="216" width="30" height="30" as="geometry" />
        </mxCell>
        <mxCell id="uc_yFwmo9GonSLipWm6f-10" value="1" style="text;html=1;align=center;verticalAlign=middle;resizable=0;points=[];autosize=1;strokeColor=none;fillColor=none;fontFamily=Garamond;fontSize=16;" parent="1" vertex="1">
          <mxGeometry x="312" y="174" width="30" height="30" as="geometry" />
        </mxCell>
      </root>
    </mxGraphModel>
  </diagram>
  <diagram id="M2jHAT9BdyGXrIC1qXBG" name="backward">
    <mxGraphModel dx="882" dy="669" grid="1" gridSize="10" guides="1" tooltips="1" connect="1" arrows="1" fold="1" page="1" pageScale="1" pageWidth="827" pageHeight="1169" math="0" shadow="0">
      <root>
        <mxCell id="0" />
        <mxCell id="1" parent="0" />
        <mxCell id="a6e7_i6S9HQH0sAX8dU1-1" value="" style="shape=image;verticalLabelPosition=bottom;labelBackgroundColor=default;verticalAlign=top;aspect=fixed;imageAspect=0;image=data:image/png,iVBORw0KGgoAAAANSUhEUgAAAcIAAAGoCAYAAADVd+V5AAAAAXNSR0IArs4c6QAAAARnQU1BAACxjwv8YQUAAAAJcEhZcwAAHYcAAB2HAY/l8WUAAABhaVRYdFNuaXBNZXRhZGF0YQAAAAAAeyJjbGlwUG9pbnRzIjpbeyJ4IjowLCJ5IjowfSx7IngiOjQ1MCwieSI6MH0seyJ4Ijo0NTAsInkiOjQyNH0seyJ4IjowLCJ5Ijo0MjR9XX3KgIpiAAAkOElEQVR4Xu3djVXkuNLGcea9CdwMgAw2A3YjGSaS3Y0EiGSXSGAiuS8PdM0Ijfwt21LV/3eOD19NY6Ctx1WSu7/8780VAABB/d/lLQAAIRGEAIDQCEIAQGgEIQAgNIIQABAaQQgACI0gBACERhACAEIjCAEAoRGEAIDQCEIAQGgEIQAgNIIQABAaQQgACI0gBACERhACAEIjCAEAoRGEAIDQCEIAQGgEIQAgNIIQABAaQQgACI0gBACERhACAEIjCAEAoRGEAIDQCEIAQGgEIQAgNIIQABAaQQgACI0gBACERhACAEIjCAEAoRGEAIDQCEIAQGgEIQAgNIIQABAaQQgACI0gBACERhACAEIjCAEAoX3535vL+wB29u+//17e+/D7779f3gNwFoIQGPH6+vrjbfq+0fs3NzeXj94OqC9f3t/q89fX1+/vp+y26X3MYbdPf9b3798/3V/+83777ber//73v+/v63bp9wL4iSAELqxa+/vvv9/f6mOr2PT27u7u/X1pvZLTviscFZb2e6XVqPbffgf9Xq3/PsCeCEKEY4Hw/Pz8KSQsDP7888/3t17DIf395a+//np/a+FIMCIaghDuaeCfqvIY+D9XwvZ3sr8L4QjPCEK4pIH86enp6vHx8X0A917l7UF/w7xqtLcEIzwhCOGGBm5VNVbNaLC2gRt1DFWNBCN6RhCiW1axpIMyld+xLBjTipFQRG8IQnRFgZdWfaLwY+A9Xx6KDw8PV/f39+/vAy0jCNG8PPyo+tpn/y9tVIloHUGIJpXCj4G0P3mVSCiiRQQhmmIBKBosGTT90P9Wc7qEIlpDEOJ0VH/xpKFowWgtb+BoBCFOQ/UH0WMgrRIJRByNIMShqP4wxE6KrEokEHEUghCHoPrDElYlauOxgr0RhNiVDWhUf1gjDUShSsQeeIV67OaPP/54rwT/+eef940QxFIKPjtXVxjq9R6tswDUQhCiOg1UGrDU0iIAUYMFolWGBCJqIghRjaq/tAq0QQuoRYGoTY8vIRBRA0GIzSwANSDZIEUViD3ZnLO1TQlEbMFiGayWrgTVoET44Sx6HOrxKBaSwFwEIRYjANEqPS5tlSlhiLkIQsxGAKIXViHaXCIwhiDEJAIQPdLjVnPXVIeYwmIZjFIAajBR+LEIBj3RY1UhaIFoJ3NAjooQRVSB8ESPZeYOMYSKEL+gCoQ3Cj875+dSC+QIQvxgLSS9VQBy5gxvCESU/Ocv9QoQngaEb9++Xd3f3189PDxc3dzcXL4C+KMuh4JQw5/e0vWIjYowOKpARJVWhzoGEBdBGBhzgcDPxWC0SuNi1WhArAgFfmXdEVaWxkNFGAxVIFCmY4GFNDGxWCYIne1qMczr6+v7YhgtigHwK2uTspAmDlqjzikAHx8f399X+HFQA/Pp+Hl6erq6vr5+P3Y4fnwiCB2zuUDmAYFtmD/0jTlCxxSCzAMC2+kYSucPFYzwgzlCh3SQ3t7ecmE8UJkCUUGo+XbmD/0gCJ1RFaiDVP9WFsQA9VkY6hgjDH1gjtARhaCqQeYEgf0xb+gHQeiEDkjRnCCA49h1uYRhv1gs0zmdlVp7hhAEjmfHHRfg94sg7JgOPFozwPns+LPODPpCEHbK5gN1NkoIAufTcWgLaXRsoh/MEXYoDUEAbdHxqS7Ny8sLly91giDsDCEItI/jtC8EYUc4uIB+6DpePbEFUxftIwg7QQgC/eHSij6wWKYDhCDQJx2zOnZ1DKNdBGHjCEGgb4Rh+wjChhGCgA+EYdsIwkYRgoAvhGG7WCzTIEIQ8MteuYIFNO2gImwMIQj4pmNbQUhl2A6CsCGEIOCfPUE+YdgOWqONIASBWHS86zpDHfMKR5yHirABhCAQj1WGCkMd/zgPQXgyhaBaJIQgEI/CUMc/YXgugvBEeuATgkBsWj1KGJ6LOcITsYwagGGK5DwE4Ul4Ml4AOcLwHAThCfRgF0IQQI4wPB5BeDAe5ACm0DE6FkF4IIWg5gT5kwOYojUEOmHmGsP9sWr0IKoCWSEKYC6NFawkPQYV4UFYIQpgKaZSjkEQHoB+P4C1GD/2R2t0Zzqb40EMYC1VgxpHbLU56iMId6QH7+PjIyEIYJOHh4f38UTTK6iP1uiOWPUFoCbapPsgCHdibQwesABqIgzrIwh3wPWCAPaiFqnCkG5TPQThDrhUAsCeuKyiLoKwMlqiAI5AGNZDEFZESxTAkZgvrIMgrIiWKIAj2Xwhw/g2BGEltEQBnIEW6XYEYQW0RAGcSVWhTsJZRboOzyxTgUJQGwCcQSFoXSksR0W4ES1RAC1g4cx6BOEGtEQBtIIL7dcjCDdglSiAlrBwZh2CcCVaogBaxMKZ5QjCFWiJAmiVKkKNUVSF87FqdAVWiQLt+/Ll5xaJVYIKRMxDRbgQLVGgD2kARhzl7u/v318YHNOoCBeiEgT2U6uKu5yv/pB/HIEW82EeKsIFqAaB/ZTG7S2jU3p/e41yFrAtDgmqBr9//854NQNBuIDOsPhzAfuoHYTqCj49fby/x7qRfH9bGxpeX1+vbm9vGbNmoDU6k60UBdCH+/uPANwjBEut1tbarzc3N+9jli6nwDgqwpmoBoH9HdHOrEGhl58X6+MWu5Aau3i2mXEE4QzMDQLL9BJoW7TeGjUav3i2mXEE4QxUg8B86sSll7Bx6JyPqnAcc4QTmBsE0DsFoHW28CsqwhEWgvyJgGUitEZ7witTjKMinEA1CCyn8NN4Swi2QeFHVTiMinAA1SDwWboKn3UX/bGqkDHtVwThAE0uKwhZKQp86GWVJIYpCFUZMq59RhAWWPuABwvwIV8JKowc/aEqLGOOsIB5QQAeMVdYRkWYYW4QKKM16gNV4a8IwoweIGqJ6qwJiCRvhJzVGGllP1qT/h22/k10sv/8/MyzzVwQhAnmBhFVXu1JrZFh6TWF+b7onHTpeK1D+e7u43s92OP/w0n/TwRhgqchQlR7BeGaUNsahOn3exnd9vj/qEWqk3+qQhbL/KAHhE0kA2jHknFaq1sxj411CsToCMIEIYioVF3o4W/bnGpDVUq61ZLui5eKbqs1/5851BplBenb45fW6AdeYQJRpKG15SGfh58WcJSm19Mq7YguXK3fLwqmhKgI39klE4B3eXgd0UpU+Nl2BIWfbZimAIxeFVIRvqEaRBR5EKoIGAqo/Lb5ITL1dfSBRTNUhFSDwEoKPh062ryFoELeNu9YNEMQsmIK7qVdLwWWxj3bhoqAUqes9DnNCXq77DZvF0cIw+iLZkK3Rq0apC0Kj1Sp5WPb0ENdt8sDLWrrU0GYnx97/91VEER+2rXwFSFtUURm7T8dBvZ+CeeKvqk9qi1qhyx0RcgiGXg2pyIsBd+aQ8LaiaVWa/4zejjketznrSIvmglbEbJIBqhDoaFCQlspWHNjl2zo+9PtLAq+dIvAKsKIVWHYIIzaAoB/FiKqBjWI63zPBvS1IbPk+8aCbqm8osW+bAVpNKGDkFeZgDelELKHeR5i+tgCMg3LXH6fc8JwTODL1ZoXdfVoyDlC+0cThPBGoZU2O9KjuxRg+dGfhp4FVn6fMna/pRHFxtapQ27OfeVK+4z1Ij7lGkEIOKGHtQIrDa10LMvDTMYCTfT1qSCsbW5oSr7P+n0Jw210GYVEWjQTMghZLQpvSoHw+vqxGX0uDTQdAgodC5yhIJT0ay0dOgRhfRFXj4abI9Q/OOqEMHxKW4NGY9jXr5cPEgqxNNzs+sEp9n0thSD2YeNjpAWFIRfLEITwTuH49HT5YAaFYR5yQ6FnrcuUvt+2M1EN1hFt0Uy41iivvQVPagbP1EiQ/6z09mu/hjapGoz0lGuhKkIr9QlBeFAKwfw5IuyyiCV0v+k2xAqGUmvWjH3NO2s7T/0dW6QxUluU9mioIHx+fn57cGYjBeBIPm4NjWM6F9ShoE3vaxsKrSPC7MjAUIAf0fVb0prGuUK1RlXq6yyHyybQu62BoeDTfNqc+xm67Zz2p0I0D+N8xMm/137eHsZ+h9pubz+v2u1tpI20ejRca5QQRO/mhtfNzeWDAoXTnPtJaSC3KjIf1PVxuhmNofpY+6Mt/drRSlXgnpVhadVub2iNOqMzG9qiiELjV1qNyNwQyoMrLQjWnkfqPgIUFp/oRKSFE4C1Is0ThmmN2lJgKkL0bGkVN0WDdDrO2WhQaiGWfnbp9mtGlHQecigwt/4MKf1eGKbpJI2ZCkTPwgQhzyaD3pXm27bS+KbgKYVcKg9Mo0Oq9L12qFnAba0G58w1zqVzYs6H54kyTxiiNap/pPczGvhXKwTTQ0H3ORWCa2kmQve/589YgxAs0//ItlSE1miYOUKCED2rGSRHjWvPz5d3Li6zE2hQ2poWe7xFmScMEYT6J97d3V0+AjBFbcf03FGdMX1Om60atdak3dY2+3wurcTS6mNOyOeduaGfgX3oGmzPQswRMj+I3s0Ji6NNHVIKzLQKTG+f/z4cnucam4ONME/oPghfX1+vbm9vCUJ0r7UwVPU3NHiOUTjmVzLpY+buzpU+vvL/o/diwn1rVEHI9YPwQOOQtiMCY+xifFO6YNzmmnTI6f3SoVfa//xzj48f21IazG2rNa21dl96Y4+vUt5pnvDR8R/BfUWof97N21HNYhl4k57B702jRNo+s1Ej34f8drJ0hCnd5xx5palDfms3b+2+eOO9PRqiIiQE4dGRg3JeYVlAKHhsm9ofBaRVjEvM/Z68qty6Pm7NvnrlfeVoiCAEvFL4nHWepzBMg9CUigYLUm1634IU/fAchu6DUJO8gGetdavUolRAa79qVK1Lfj/9PNvScF7DaRcQBe6DUPODgHc1AmdMXnWWqlCr9BRAeru2Uk3DbO/fa0pL+3I2VYReryekNQpgUtoRU8DNqZbGFhlGD5Ue6UlJaI126vr6+vIe4NtR4WLzfGasWlKb1Fql6WasirRtytLbA3O4D0IA+1LQlagZYwtp5obW0H0NWXp7rMdimU7puhfmCBHJ2nm5LfKg08eq+mo/6XaN0Ouhmkz3scX99BiGLJYBHGlhpePQM9/MeUacsduUvjbnPk3L4TemparX6zXZroPQ8wWgQAtU/Q0pXdCuQT0d2FU5Wvs0nTscottoLNY25/ZjWgoY0+I+ReD6KdZ0DeHLywtVIULJn+JsTwqksZ9lQanKrVSRDY0+6bO61Kpy85+vfVtSUR4l38+WRmhNN8mfLf7hNnAfhM6fShX4hcaqsUptL9Y1S4MxPfzmBuFeQdBywOSsMmwtb9Rl8/ico25bo7RFEdVZg+deY2Ot5/xU8KVby/Q/dFZ0Nc31HKHXiV2gRaq48vNPhZhtuZphpJ9tG/bj9RIKt0Ho9amAgB6oNWvzh7aVKrKhkExNVZr59xOG+/IYhlSEAFYbOsTU1stXjZYCy0JS79vXS4HZMqtECeB+uQ5CIKIjl+APFQYKtaenyweO5eEXJQy9ddwIQgDVKSDz57tXi3NtSCtYbcvlrdMeqsie6dIJWqOd0D9Kz5YORHPGpRNSCqC0valqSfs2VDUNzQXq9hp3bSt9v/2c0j4AU6gIAVSxpC2oyi4Nr14DTPuteVLbev09onNdEQLY19R6tKXhONT+3JP2Md2WUiVrWxTexle3zyzDs8ogojUDeW1qf1obc0h+aJb2O71N+vWah7VCN99Pho1p3sZXghBwpIUgLNGhOPa0YVNBuBeCcB1v46vL1ihtUUR0ZghOtUjFnjZM+5lue9jzvuGP2zlCLqYHjjN17mnzfkPzf3lxsaXYSH/GVBhqXs8WumijGozJZRDy9GqIpsXqJw0VBeXUPur2to1R0A0F6hoRF7vU4KnzRkUIdK7VFuDt7eWdxNaw0e+q8XdOsGI/3sZXt0EIRNByGOTPLGNU8WllqbZS9affybYppcowDdup6hIQghDoVM8VkRbNqKrL25z577T2d5zTYgWMyyDk6dXgXS8hOBRG2n9rcVogrsG8HmqgIgRQ1dj00dYAt0qPig81EYQAqlKFZ0rBN/YKFHm4EXZt0mIZT6vz3Qbh69BMPeBA6dlZemEX1qdbvsCFig9HcvkUa3/88cf7GYteNwvwqod5Qhtd0n0d+5wZ+5pMfV3m3Ca19PYlNe5jyJ73vdSXL1bW/3n6vtRAaxTo1FmvO7iEBu90AJd8paiktyndPjX19TWmfsYc+X3U/P/k+7Nm/2r5+bM/euA1/v5nIwiBTtHwGJbPQ659ZXwM0ap8Pw9Al0HIs8ogAgb3YflJAicNtWmM9TPOupwj/PsyQjBHCM/ObI/NZaNLuq9jnzNjX5Opr8uc26SW3r6kxn0M2fO+l2ppX2qgNQpgNxow00EzpQHUttzY12Tq6zLnNqmlty+pcR9D9rzvpVralxoIQqBDQ+HSCwvIsaAEjkIQAjhUaW4zXXlIQOJoBCGAqtK1aqXW2djUfR5+hCGOQBACqCp9irXc1jmltFokJFELQQh0qJdFCkNhpf1X5Wjb2leR8HAxN85HEAKd6nnFnuYJLQDHXkh37e9IxYglCEKgYy2H4c3N5Z2MAspeob4UVvqdbJtSqiTzhTfAFIIQ6FyrYfjycnknsbWVqd/V2qmt/t7oj8sg1KvT61XqgShaDIW0GpsTXLq9bWPydupWCmfbEBMVIYDNFHRjLLiGAiwPv6kwHJP+jKnwVfjpnNm2LT8X/XIbhFSEiObMqnDO4aYFMtq0n+m2hz3vG/64fNJt+fJ2auf0VwMGtVDRaBGMVVhD8kOztN/pbdKv1zysrSJMMWxM04uf/1OzP30y10GofxQvyYRoWgjDlEaYfJ90WObjaDpHl35tKiS3yu+fIJzmrdBw2xolAIHzLRkrFX62HUn7mG5LKcBti0DTTt7GVxbLAKhiaeipEku3Hmm/rQ2srdffY4nn52eCsCf6hwHRaI7uDKUQSENOQal9GwrMoYpKt9e4a1vp++3nlPYBmEJrFEB1OvzyZ5ZR0I298sSYsbZpHqCEIZZyG4RcVI+o1obNGkPnmwqsr18vHziWV6dD1a4nGlc1vnrCHCGA1YbONXW9YD4zkVdzCg17zlG9b19P25w9VHfad9si8LhYxu3lE/pn/f12NHq61gWYq5UAScfLPDSHRp5833UfU4dx+j1RAuksHq/Rdj1HSGsUOI7GxrxQUIDZlqsZ1vrZtmE/HqtBoTUKOKO25Bn2uo6uVlNHwZtuLbOno2uN15X4roNQZy6vr6+Xj4AYjmyEpMWBfm7+s9cM6FZZ2raXFoNGFNI2d9piYFMRAmjeWUForEWp1avpgK7P2cd2GymF5VhLVZXnXtXn2Urh3Gpge+J2sYzoiWH/fDsaPZ7BAEP2rCJ0KE0FrY0oCqv0tqWRJt/XqdFo6e1TW773SPl+6sThyEtixngdU11XhPqH0RpFJHtXSnOqzaEKZk5lM3abrdVSq8E3pZUQFK8LEGmNAo6cMU5Zq9NYKzS/5nrrgF4jELSftrUq3ccW99Njh811a1T+ejsqtQHe6WG+pEJaS0+dpmeNsZ9lAZX/7IeHn0+zlge0HZL5oTl1qC69PepRd02t0ZeXl8tn/HAfhN++fXs7IN+OSMC5fG6ppnxucMlcoZT2zffI44+eoEQ05eSN+9bo9fX15T3Arz1DUPLQK4Wggk2bqjS9nQrKIfpd0u1MLe0L9sMcIdC51gZoFQzaJy3cqbFvSxYAWWBp29o23XvhUW80xeSxGpQQQchTrcGrGkGzllV/tplSgOi2aqdqs8oR/fA+hroPwpv8RdEAJ44MQQsyY0GWBuHU/gxdID9l7vfki3W2PhvYmn31Sk+t5nnRYYgg5JXq4c3eIZiGnujnpUXB0M9XNTgnQPT96ZbKq8e58q5djZfMW7sv6Iv7VaNa8quVo7wcE7wYCqGjKRzyjpk+Z4eaKrShKaVS+NWQ3i/BVY9eekljqNdn6WKOEOiEBvlWQnBIer45FIJ5C1NKn1tD4WcblrHH19BjzPNTVbqvCMX72Qz8azEAp0YOTSmlAZfePv99CK5zqaWd1wv2P/F8/aAJURESgMAyGgTTw0Yf26aAs0HSaCC1zdSemrdqpcWTAvQtTBDaWQ2AaQqbtEJQwFkI2QpRCyS7rW32+VxeHabblDRgZehnoD6tFr2rsfKoYSGC0Ps/Ef7NCYu5jmqQ1H7SbewnX0uYP968d9XCVIQsmEHvao1F6aGg+6wZsilVjrr/PX/GGjSHyvQ/ss2okxZhailEEAphiN7lZ+21pG3GfCA0Yz87v336sb5vzn6X5hhTug8L1S3Bqt81b+1iHEHoiFY8MU+I3q0NACl9b35uaOGQBo59n71vi2Xs82Ifp5+bSz9T+2HbWBjODdaS0uG/55Dw+Dge7j1Q8RBhailMEAoVIaJQiOXPLji3AkqDSe+nA/na4Og9ENZ4ff38d+yRxswIFWGI6wiNXlRSlWGEfyx82zqw6hBQZTXnfoZum44cQ19T+CkIUvmIk3+v/bw9jP0Otd3efoSh6W2kVQiqixbhWblCVYRCexQeDA2q+TmePh66rQ6FdEHL2G1L7FDaWunlP3PPcVc/S7+ztXcxTM/RHKVoCBWEnp8ZAbAwSw2NY6rSLBD0vrahADqiIFAo2bY3DQNHDAVfv17e6VSE6wdNqNao0B6FJ3Nam3NNjQRrWqNyZDsSdagtqrEySjyEa40K7VF4oXGqdE6nSq9UHer2Y2ObQsu2nH3vVFsx/5p9n201pftb2mes4/31B3PhgpD2KCLQw3xJV0sBlQfJULCUDqG9gm6prfOV+BCpLSrhglAtUZX9XEoBL0pzeAqEp6fLB4m0clJoTVV3xr5vKBzhhz2bTKTpo5CtUeYH4Y2Fmj20dZ6npfv62Lb83E+hNqdBkldZe4ehZi6YvThXtDEy3GIZiXR9DGJRaKWBlx7dpQDLj/409OzwyO9Txu63NKJYsE0F75z7ypX2Gevp9VujxULIIBRerBcerQ1CBdVQSC0NQh1SaSAtCbf8tqpy51StqEMFggqFaEVCyNaoEIDwqDR+WTWWB5A+VvBoU+DY+7n8PseCbI60gkN7Io6NYStC2qPwTuFmIWjyo70UfEtHhPw+pn5GXjGmpu4L+4rYFpXQFSErR4HtNG4q3LTNGUPHzj31/el2FgVyukWgwiDStYOpsEEohCEwbEkQKNyGAq6VcJuL1m08oYOQ1yhEdBZOKgTGgipKVRSZqsGoTzgSviIUqkJ4ZOGWh5wqHttMPv6Vzg85Z/QrcltUwi6WMVGXCyOmvLLTueCWhSsWjt4KifR3jzBCWmcsakUYPgjl9vb2/QFwf39/+Qzg05IgzAuE/OP8vnQ/lyYLOsIKeoLwnR4IkV5yBLHVqnbyIFRQlgqKtAV7xFgbrZrbiicXIQh/4HUKEd3SwMqDsDSS5LcZq0BTti9Lg1Pfl075exrd9jihiN4SNQThBe0BRJYHltQYGdYE4ZyAHeI1CPf7/3x5XyQTPQhDrxpNsYIUaFNaCU3hPHY+nfhr3IsegkIQJvSgsFYBgO3yquWIoNLP1HwloThOJ/1MBX2gNZph4hhRbWlJ1tTKfrQm/bts/ZvohF8tUYb/D1SEGQXg8/Pz5SMgDo2J6XaWVvajNbX/JpEvoM9REWa4lAIoo1LzgTHuV1SEGVWE2lg0A/y0ZMEK2qaOF9XgZ1SEBQpBLqUAfsovSxBGjj5Ffc3BMVSEBbZQhqoQ+MA5oQ+2SAafUREOoCoEPkvboxwWfaIaLKMiHEBVCHym8LNtDuYV20I1OIyKcARVIbBOzWveUAfV4DAqwhFUhcByVILtoRocRxBO0PPw6ZobAOgVITiO1ugMCkJVhzw5LTBPhNZo+jtKq7+nqkFh/BpGEM6g1qjCkOcgBfbVS4AqW/IiSx+3mDXMDU6jNTqDwk+tBTuzAlBfXmHlH2M55gbnoSJcgFemAPZTCr4to5PGfzt33WOUy/e3tZHUOlkM8dMIwgV0dqUHF5dTAPXVDsL0/vYa5SxoW2yJqhLUyTtzg9NojS5gDygupwDqy8NqS3jlsxj5x7VoSGg1ZwjB+QjChfTAYq4Q2IfCz7Yt8vE/Yh7Q7JuPIFzI5gcJQwCt0vjEWob5mCNcgUloAK2ylaKMT/NREa6gMy1tVIUAWqMQ5JKJZagIV+IiewCtsZNzFsksQxBuoAcdl1MAaAXXOq9DEG7E85ACaAHV4HoE4Ua0SAGcjQUy27BYZiOFnx6ALJwBcBadkLNAZj0qwkpokQI4Ay3R7QjCipioBnAkWqJ10Bqt6OXl5erp6enq8fHx8hkA2Ifaoaxar4OKcAdqk6pNQWUIYA+qBAnBegjCHbCSFMBeaIfWRxDuhDM2AHvQWgQFIYtj6iEId0SLFEBNrBDdB0G4I1WEWjjD4hkAW9Fl2g+rRnekSlBtDADYQgFIO3Q/BOHO7u7ufrQzAGANWyDDNMs+aI0egGedAbAW84L7IwgPwOUUANawSpBhel+0Rg+g8FMIKgwVigAwxeYFWRyzPyrCA3F2B2Aurhc8DkF4MIUhS6ABjGFdwbFojR5MD2w9wPVAB4AcIXg8KsKT8GAHkGOF6DkIwhMRhgAM0ybnIQhPxGUVAIQQPBdBeDLCEIiN1eTnY7HMyRR+OggUhgBisRCkEjwXFWEjaI0AsdANagcVYSO4rAKIw0JQ1SAheD4qwsbo4NCBwUpSwC+eNaYtBGGD1CYVDhLAH05220NrtEF2gNAmBXwhBNtEEDZKBwpzhoAfhGC7CMKGEYaAD4Rg2wjCxhGGQL9sdSgh2DaCsAOEIdCf19dXQrATBGEnLAy17FpnmQDapssjuESiDwRhR3RA6cDSWSZhCLSLS6D6wnWEHUqfn1BVIoB22PH58vJydXNzc/ksWkZF2CEqQ6BN6UkqIdgPgrBThCHQFoWgjkU12ejU9OU/b4PpX5f30RlbPPPt27f3txx8wDksBHn1mD4xR+iAlmnrIPz+/fvV9fX11f39/eUrAPb0+Ph49fz8fHV3d8dx1zFaow5oLkIHodqlCkNVhzpDBbAPnXjqONPx9vDwQAh2jorQoXTCnnYpUBfHlz8EoWOaO9TZKoA67Nmd1H0hBP2gNerY169feSYaoAJrhSr8qAT9YdWoY5o71MHLqlJgPbVCdQwpAJkL9InWaAA6m1VLR+c8POUTMI+OG1t0xmURvtEaDUCVoJ3v2BwHgGF28mitUPhGEAZiE/xqk3J5BVCmY0MhqACkgxIDc4TBWBDq3868IfCTqkDNBeoJKnjC7FioCAPSWa61SqkOgZ9VIK3QmKgIA6M6BD7mzVUF8gwxcVERBkd1iKj0WNdjXlQFciIYF0GIdwpEawnpDFnzJYBHtiJUb/WYpxUKriPEL3SmrHapNlbNwZM0AKkAYagI8QvapfDG2qAKPz22CUGkWCyDQRosNHiwmAa9Si+JYDEMhlARYhTVIXqlEzi1Qm3+mxM5DGGOELPp7FpBaAMK84dolR6nNhcITKEixGwKQBtYdLatwYYKES1R+NmCGF6LE3NREWI1haAC0aaZqRBxFutWiB6HtEGxBBUhVkvnD6kQcQarALVZx4IQxFJUhKiGChFHSStABR+PNWxBEKK6NBAZoFATLVDsgSDEbqxdJQQitiAAsSfmCLEbVphiKz1m7PpVBSBzgNgDQYhdafCypgOBiDms+lMA6n2FHwGIPRGEOEQaiGJn+RroANFjwVaAEoA4EkGIQykQ01DUoMdTt8WWBqBCjwDE0Vgsg9NZCNpKU1FYwi+Fn3UEFHj6fxN8OAtBiKbY4KhNoXh3d8cA6QThh1YRhGiWBk2FoQZLGzjRl1L4CQGIlhCEaJ4GUqF12g8LQEP1h5YRhOiKVRdWYWijfdoG/U/E/kcKPztxAVpGEKJbNvDq1ce1afWpvLy8XN3c3PwIStShv7HY311v9XdO2d89/zzQMoIQLmmQfn5+/jTHKLRU57PAS+f4hHk+eEMQwj0LRb21Ad0GcdqqP5X+TkLwwTuCEOHYgG/va5MIAWm/q1joid4SfIiKIAQuFAZeAtL2PQ87sf3XW/0+9j4QFUEITFCADAVkKv/4+vr6x6KRLUFjP68k3S+T7p82wg4YRxACK6XhY4GUsq+XgiwPpdJtUmMhZl8j8IB1CELgBHPCEcAxCEIAQGi8DBMAIDSCEAAQGkEIAAiNIAQAhEYQAgBCIwgBAKERhACA0AhCAEBoBCEAIDSCEAAQGkEIAAiNIAQAhEYQAgBCIwgBAKERhACA0AhCAEBoBCEAIDSCEAAQGkEIAAiNIAQAhEYQAgBCIwgBAKERhACA0AhCAEBoBCEAIDSCEAAQGkEIAAiNIAQAhEYQAgBCIwgBAKERhACA0AhCAEBoBCEAILCrq/8HcJdHgdOJMbkAAAAASUVORK5CYII=;" parent="1" vertex="1">
          <mxGeometry x="215" y="140" width="209.08" height="197" as="geometry" />
        </mxCell>
        <mxCell id="zttrMDkdoLJVmTCh2QJf-2" value="" style="endArrow=blockThin;html=1;rounded=0;endFill=1;startArrow=blockThin;startFill=1;" parent="1" edge="1">
          <mxGeometry width="50" height="50" relative="1" as="geometry">
            <mxPoint x="320" y="360" as="sourcePoint" />
            <mxPoint x="320" y="120" as="targetPoint" />
          </mxGeometry>
        </mxCell>
        <mxCell id="zttrMDkdoLJVmTCh2QJf-3" value="" style="endArrow=blockThin;html=1;rounded=0;endFill=1;startArrow=blockThin;startFill=1;" parent="1" edge="1">
          <mxGeometry width="50" height="50" relative="1" as="geometry">
            <mxPoint x="200" y="240" as="sourcePoint" />
            <mxPoint x="440" y="240" as="targetPoint" />
          </mxGeometry>
        </mxCell>
        <mxCell id="zttrMDkdoLJVmTCh2QJf-5" value="1" style="text;html=1;align=center;verticalAlign=middle;resizable=0;points=[];autosize=1;strokeColor=none;fillColor=none;fontFamily=Garamond;fontSize=16;" parent="1" vertex="1">
          <mxGeometry x="392" y="214" width="30" height="30" as="geometry" />
        </mxCell>
        <mxCell id="zttrMDkdoLJVmTCh2QJf-6" value="1" style="text;html=1;align=center;verticalAlign=middle;resizable=0;points=[];autosize=1;strokeColor=none;fillColor=none;fontFamily=Garamond;fontSize=16;" parent="1" vertex="1">
          <mxGeometry x="312" y="134" width="30" height="30" as="geometry" />
        </mxCell>
        <mxCell id="zttrMDkdoLJVmTCh2QJf-4" value="" style="ellipse;whiteSpace=wrap;html=1;fillColor=none;strokeColor=default;" parent="1" vertex="1">
          <mxGeometry x="240" y="160" width="160" height="160" as="geometry" />
        </mxCell>
      </root>
    </mxGraphModel>
  </diagram>
  <diagram id="9m2MDAJoQJA2pz0KVbiX" name="trapezoid">
    <mxGraphModel dx="882" dy="669" grid="1" gridSize="10" guides="1" tooltips="1" connect="1" arrows="1" fold="1" page="1" pageScale="1" pageWidth="827" pageHeight="1169" math="0" shadow="0">
      <root>
        <mxCell id="0" />
        <mxCell id="1" parent="0" />
        <mxCell id="JUZGIfeuZXsMgJHWFW5o-7" value="" style="shape=image;verticalLabelPosition=bottom;labelBackgroundColor=default;verticalAlign=top;aspect=fixed;imageAspect=0;image=data:image/png,iVBORw0KGgoAAAANSUhEUgAAAYQAAAGKCAYAAAAMtzajAAAAAXNSR0IArs4c6QAAAARnQU1BAACxjwv8YQUAAAAJcEhZcwAAHYcAAB2HAY/l8WUAAABhaVRYdFNuaXBNZXRhZGF0YQAAAAAAeyJjbGlwUG9pbnRzIjpbeyJ4IjowLCJ5IjowfSx7IngiOjM4NywieSI6MH0seyJ4IjozODcsInkiOjM5M30seyJ4IjowLCJ5IjozOTN9XX3iAzuGAABA20lEQVR4Xu2di5UVObK1i9+B4VoAWNC0BRQW0B5AWTBzLaDwYK4FgAc9FlRjwTAWFFgweMCfX+aJrqho5fsp5f7WUtU5efKplGKHQkrlk58VV0IIIU7Nk4r/d/kshBDi5EgQhBBC1EgQhBBC1EgQhBBC1EgQhBBC1EgQhBBC1EgQhBBC1EgQhBBC1EgQhBBC1EgQhBBC1EgQhBBC1EgQhBBC1EgQhBBC1EgQhBBC1EgQhBBC1EgQhBBC1EgQhBBC1EgQhBBC1EgQhBBC1EgQhBBC1EgQhBBC1EgQhBBC1EgQhBBC1EgQhBBC1EgQhBBC1EgQhBBC1EgQhBBC1EgQhBBC1EgQhBBC1EgQhBBC1EgQhBBC1EgQhBBC1EgQhBBC1EgQhBBC1EgQhBBC1EgQhBBC1EgQhBBC1EgQhBBC1EgQhBBC1EgQhBBC1EgQhBBC1EgQhBBC1EgQhBBC1EgQhBBC1EgQhBBC1EgQhBBC1EgQhBBC1EgQhBBC1EgQhBBC1EgQxGl58uQh3d42SYgzI0EQ2REN+Rj++OOPOn348MdlyfK8ft0kIXLjyc+Ky2chDsu3b9/+TDc39ZJ6+S+//Lj67ben9Wd4gkpU/Pe//716+vRhufH8+fN6H/DhQ/2v5tWr5v/1dfPfw/psZ3z//r3+/uPHj6u//e1vl6UNHz6wnq37/Ornz4fthDgyVd15IkEQu3Cx25XBbP578ODhw8Vi8/26stSkV5XlfvC+r6/ev58X6rF93d01/+fAeTb7+8I3Prj/V1fv3r2rhYRr4FqEOBISBLELGM2Lza/4ozbGX758qQ2q98bfY+0rovE0MYG5grAG/vysdtm10bq4vZww1/X27dtaKITYGwmC2IXXr4nj4/2jCnj+jXHEc0YMfHimZGgBIRKfPn2qr9+ETy0IsQcSBLEJeMfWAiAhApVvf/mfDhudDcsjoAVhAuHFIdXyEGIpJAhiEQj1V3arMlyXBRcwcjc3N49CQDJuw0iLKOltleisrv4JsSASBDEL7FTTicqond8rg/+jjpE/e/aMhbUQIABnCQGtyadPiGv9qUovrt6+vX+Uv8pjMRcJgpgMXisx8Afv9f3V7W0z6kesQxyZZaOwLMTkW2BCjEWCIEaD8cEQmQF6/frBAKkk7Qf3xEYv8V8d02Is6IGeVBZJasffQUvg9evXdUjo7u6uThgcRMCS2A/EGd+O+wLcq6p+1yOYhBiKWgjiEb6z9+7uISykkER+WFjP7hn3T4g21EIQHdxWXmZjTHyLQOSD3TsgjESLwfodhEihFoKoH47Cm+T/hw/fqyUUiXdXHz9eX+kh2nJoBgA8/EcwNEJJGLQQJAgnh1gzxHAQNkMNgrKxjuiHzuiHkJKswvlADxQyOgnUefoHrI8AY1Dd/3o0SiocJDEoH+uIhkYUKBxhNIE4FRKEk/AQOm6EgLABQmDe4Z5MCWubuJnAiekgDLe3CANlgZvxYdI9EfmjkNFJePKEp4nrR10r8Az3bwKkjPnQ0ui3RdPGDqCJx1YtsDyhnHyuUhNK0sik86CQ0UloOhERAyo3o07OHQ+6dJuIAKJ4fc08SQ+hJFqTGpl0HtRCKAjrCPajhoBRJE+f/nb19WvzBrE1okRfv15d/frr5cuFvpI1p4XANTA5KNMmjX32CkGoNdIxpxbYvkrsd7Fy9K9//evq73//+1/6mkQ50ELAExCZ05gzS+9/VpX2593d3eXXbfj4MZ7H5YcB3N5ePmxMlU11msPUa86R26ajof4vygNRUMioGHBTm1jIkg+R4cX71Mac5xX2ClPzzNblua3FKDm64kclKZRUJhKEIqBiIgaIwHLxoLGxdmwFOkS62A1RIM2opNs6nMT7LkQ5qA8hY6iQeGlNDBs3e/5L5z1Lx9pLJLaazpY/PNhIa1SjkfKHPgS1EDIFMbDK+PPnXZWuayFYo8NYtIMA+HQ2bK4khZDKQC2EDMDIP9S1P67evv1Ujxx69+7d5HlovGf78WN7H4AXGImN6MJarPCxKlSaIykvaCFIEDKgMd7EbkwV5j9Y5gWBmP/SnatiPP6eLBn62wP6FhAFkQ/ogUJGWeA7jfVg2RngGYucefv2LQZGYaTMkCAcHEZzXF/TOkAImo67IW06vE1LKdiHjQhS62B/SrOb9G3ZXFkShXyQIBwM6o7VHyrSl8pVpGIRIsKIDxUDT9vwUYTgCGLgr/msxEE6r15dPmRMM+ChKbDWWmDU2tnv9ZFRH8KBeDDkTX8B3vuUzrkoCFu3Avzx+0pXPNehpdFE7u3beQ/FHQ27riMI9ZIgBrQWqiurUhPylOU5FvQhSBAOAp7T69cIgU3M864yCte1MU/B3EEkiAaReveZCSsv4H0uYTStk9P+p8Cg+WcX+jpHoyB0jXgy/DZo5f395Ys4NE3Z+Gf16UeVaD20FG6xCxKEA9E8V0BbmthBvwc11bOeytDjzRWEIdcxRxBsW5X6fWjynwLyuioXml77SKAH6kM4CDSp7QEzjNWWBgsjbmkuMdTRJQZg1zr1mgkZDcULSRQisQ3NfX7ct4AzJI6BWgg7Y08cj52QLhq0qXeRqaPjdDSpfS11vD0p4RpKw/oWlpyQUUxDLYSdoTIgBs3Q0nGVwbe0tzBsHINTJMmQiqWwifKoC2J/JAg7QQWgdYBn1BVHxau15CEUg2EeapxT+xgL4aAYEsoJn1dnEbUc7Czl/9mzZxKFA6CQ0cb8/vvv9dunXr16dcVcRF0Q0/fh1Sl3iu193wAGPTZGYpw/fhcNUVCPXHNiKDCHWv6pOunv37/XdUPho+0hZCRB2BDfKhiKN0Jdd8qMfmrXQ/ch2sF5jUKZEtejsIQzsRdT6omYjwRhQ6yQj33QjErNvDZdo/P6PFcJwjLk1EKAnO879YW+hfv7e82auhEShI1Y2+M5oqHqarHkSm6CADgUuUZfqDcIAqEksT4ShA3Yovm7paEa4nX6dfoeHBuyP3Fe9Ea27UAPNMpoRZYWA4ynpbaO3zn1Bq/e0hbE43hxEAIIsWpY6nZIEFbin//8Zz2Ubikx6DLSeNaWukYI8ZulCK1ywguWUuuw3BO/p/jll8uHBfCCmKN4MPcU+awIyHDoPyCIQV3ipTs4WGJFCBmJZak8mp+VZ3P5tgzX197s//z5/v3lh4FwOn57kmfo/tkP6y6FP2YXd3eP1yVV2ZwV8fzFeK6rwkf9EsuDHqgPYWHW7DPwrYS23eN9MtNp/J3lfVNUeK+b0FNXa2MPYqsgt5Kb+/kfBfoV6FPQswrLok7lhdmiA7kPb3SoL3YqQwTh6Iw1qEczwBKE5dA7m5dHncoLcgQx6CI+FJ2jMeKcfRrLVp3lbfgO/xzz/0hoqot1kCAsAEKwtRjgbVoayhxjKuZDCE75vwxM+6LRR8sjQZjJHmLQVQfwQi2tcUo5jZQhD3gOgrRWfoh9YPQRD62R6FP49u3b5RcxB/UhzGDPMJFvGUy5g4gKRjLSt9/YIulbh2McrXN6KG15dEaqYt47hcpeUAenvFNEPIY+hKpCiykw9K3Kw8u37WlM8eXLCGy71PaM5vO/pUb3+d9JkaHDV1neto+98ed/xPPbg6Pnh9XHq6v7w57j0UEUFDKaAB4J8cs9O5CteraBl26piyOEfvrOcW9yCI9tyd6d8ymaqS1oijbN0SOeYw5IECYw9S1nWxEN7FCDG8MBqfCAX5YSpKEaSfjBo75BMR8K58G9i4OjPoSRHG2yLW/s7U6mBKDtt9Tdxzi/ejVvlkwz8G3ZRL+CF4GuUpi6xjUZkkd7sHU+ePY89lCac2Rqiw9V2b3TIIKR0IcgQRgB8xO9fPnyMC2DaLg4LSpBNLYYZd+xSwch7HkZnIOdB/jz89D09+ttVVqPkEeevfIhN5rw3h9Xnz9/qJ02dTIPR4IwAkYUkVWEio5CmyCUhAxhg/JhPJV5q/v5JArDkCAMxIa1HfHtTWs05TE+cBRxsWsccn1HO/clGZMP4qHeShSGgR6oU3kA1ol8xFf5YRwspSB05MNHgGGxFBs8LMMTJZlx9fhtt6Lr+jz+3PdoyFm+rHXsofkgGhAB6q2eZh6OWgg9HK0TeQzeaPt+BL8cjfNvNPO/pUJQY37fumR1Xdfa+GODatVxoA6rP6EftRB6wLPIQQwwRpbM6Ke8+7WJRjF+F2IPCBl9Zk540YsEIQHzouBV0Hg6uhi0tYbfvr18SMAl4SyR4gzC/GYpFYd/82be3EAIVhSvpfDnvvXMyBzTYMiuOBa//PJLHT4S3ShklICCU7WeqkruavmB8Z44p7xnufctk5RgxFaDSp/YipzDv1tAyEiCkIBQUW6FxgzxFK99S4YKwtrXI2E6JxKFdtADhYwC9rxBbmA424wnYSVG3ngwuKTUPD2p9ZfCZ21bNmOsbbRQNNxLkAqz2fFE2SAERAAYkir+iloIgUokK8Oa37hlbzjtjrZ5wW3LIbUfDyKyZiuEemqtA4MQ2JIOHYIQw2p2TZnddjEBnD4EYc/JKY8ILQQJgsPGK+fYnFxDEKIh7hOLJUgJwhrH6soDUT4Shb8iQXAQW4QcC0g0olwCnm6b0cPQW9iEETFsb/htbD9Gl1j89tvV1b/+1XxmefTAxxC3bduXLZ96LLvuPVsFFrKL77xemqF5eibsYVNexykkCH+Sc8vA2MJ77zrGixcM1718qVi7VCGAXshyLMVtgr008TiQY36twc3NzdXHrccoHxT04PSdyogBnkLuow6o4JbWYs4xMEo+CXEEXlVNZHUwP3B6QUAMSCWA1xzj72aA4yXauku9Dcw/CBcFowQBsHy0JKZxtDxk8IhFCER1X84cMsIz+PLlS/atA4gVjLvaFlbx67bNZTS3H8CTqvxLlDq/3zVLMaJ5c3P5cmGp4211Dd5R2KubrK087o2eTWg4fcgIz+DshcDjjVOc+oXKTFqqRZFi7P4xKJZyZatrQAQsicdgA/RsQsNpBYGbT/ywFLyu2Wcfxmm71F9+uXzoAKGgrpCipwwY8a9fL18SYOzot7MUjR/b2zFS+58DrRwTs6ktnpcvLx8uyIeYhhejI+UhrQNGF+IgMo/ZmTllyMg6kjXA6q9YK4EKawbUtxzAZ5v/jeGbUzxQjLV3zpa6LXG/oFsu2sBJxDac9dmE04aMSupI9mCcLRn2fejlYjBJfv21jajCGOII2OwEZ+5kPl0LwW52aX0HKS/bCwPYnfbLfUtgCn5fqRYC5wVzjT5hJevXGLOvtjwQoo3KUT7k63LX5pQthBJbBmMwAx3BcPo0hWio2Q8iRWo77lDoW5iyLwTAJyH6OHMH86kEwfoONLKoH18faFS1taJlbEVpYB8Yjn5GThMyOkOHUSo8Yw0iwjkkQi8MpLDwiz21H71unk1AFOaMv/ctDY7jp4xh3yY6QxptXftaAhtcskSUwF/PkGsTx+Of//zn1Y8fT6tPTUE7w30kZHQaQagutTJm5V4qBt179VyqN6JD+gqioMR9gmWh3zeMzdq52y9JPBeYcz5+f1NHXrXh971nnpUOdeXDBzKbm3e9+H08IujBKUJGtA7O3ndgYFB88lDgfaFvqwCxNXEU2sJapXDUfC8XbMa5RhydRhDO1m8QjSMh0TaD0iYQgBeKlvL/yB4p5855tl3HXpTuVZYNNoMmcmgmF8wpBIFwUelEwxP1r+1J5dhwSmXVGC01g2ypDb/PuUJzNM+Ze2EiKnLnukr0PTbfSqd4QaAj+STdJHWc008NwX/rTB4bMevytqkctl+SHW+MYTaDmbo1QwRlSTgHronUdk5jIE/WaJD6fJ97jmMoPRSXwsrn3V3TSjjNMFQ6lUvl7u7u5/X19c/7+/vLknJ5MGU/f378+PPn+/ePl/37381yUpUl9X+osujRemwHz58/Xm6QlWyTgn36bfx2Q5m6D86b6+K/XYOYh78Hb95cFp6Q91WBek6FKBz0oOhRRoSKzvLcgfem8SCjQ8NwyjhvV9edb3sDmj9Oavu236O333ZshsWuNdW0GIe/Z3Ga9LNxhimyix5ldOaH0MbEO6n0ljypF94MCR2wrqUu2lrg8fkCicEx8OXhjGBHzjBSsVhBOOsw0zb9S1Xorpi/xVD3MMh23CWPzbWSaIHM4UzxdLsHlIWTVqc/oXVAKr0vociQkbUOCo6GPSIVjvHLLBviMgykL99xvVT2DdlvCr8OtK3XhxexsS0hY+qxl7oGkSeIQcnPNBUdMjprCwGi4TLP2EanmCFLGVS/rTe+BtuQtW3GMLUNsD7Ht3OYggmYpXidbbSd0xiW2IfIG1oI379/v3wrk+IEwVT8TH0H/lJTzxvQOWyzhWJE+Y9RJxFKSr3FzMN6GEQzilOzFjGJIsT5+NT15rWpLBH/XjqGTp766xZ58OzZs6o+hdEZJUHIqCS4JIabnoXGlD8kG3Lpl93ePv4ef48wfJNk+HX9ck9qud+uDb8OyYbDthHX3xrycgn2vg4xDYawM5S9RNCDoloItAys8+es0OnpPU5uc/To2zpGrRWQ8uT7iOuvFWJ5bEYvCzfkRA1PkcBemoOtKZHiQkZnFoM2TCDMiKaMGutQxi2s1IaFpFjHp6lwPtwyEp+Xntb6qMTrFt0sUdaWgnA0A1eK5NJaKILqRl0+nYvGpAxLhl8WQ0qkGHVjHQuX0GKO66fo+30IY0M0S4V0SoD71BeCy4Gh5W1LMJ2lhabRg6JaCDyZfDbiJfeFNKKXRTFIbWMtBUus07fvCPtOecCEk/qeB7DjWudrH3F9/o/BWkelQB5wPfGpb7EMRCJKbCUUIwjE9BgBcCZShtLKqBli/wYwlkUwGmY8zeinDL8v+4y4YR32TeKz7ceS4fsWWMcbKv4PZe4DZV1wTtZ/wuc1j7UFMV/H5PMRiSO8UuVzaz5eXjVY3IijS2she+j5P9PoImhM/rCUGn2USgbrp5bTfCdF4vp+G4//vSu849cjDcGvPyZ66Lcjpa5vKGx7hDCNvx6xDjZ5ZimgB0U8qXy2J5MBL3xMixWvKr43HO89tjJ8FvrfWO6/09rw3n/qfFK3I+6zC9vfGI+QbcZ6kF15MIYx1ybyh6gEk96VYneKelL5zE8mRzDWMTyEoSR0YKltWClGzRLl3NJSjNknhn2scR+7PnAu5AdpqWsdI9YiT+hHIJU0BLUIQUAMzjir6VwwWl44ojEc8ywBemzJG3zi8X378SI0RNc576UNbkpEheijtCGo2YeM7GacTRAwnkPhDsf3G3h8CfD7xUD6loT/zbaxZWR/ypintol0HTPi14Ujld4h1yrKg9GN9/f3fz60litFhIw+VS7oq7YXBp+QVJnEUP340XzGcEftRFPx5Ek2cujNm2Z0B9taYjsMXRQD+Pz58sERW9JDWtZdA8WmOGJck7+GNVv3ljdLiYFvdYnjgjNazGgjWgi5cnt7W6cz8tj8DE9AlqV+s2QDJ/gff/P45W1vGPTrdGHr9I0O8vsj9RGvYczooz2Jo7aOPpiF87N0Rt6+fXv5lC/oQVEPpp0F75l3kYqLs633OLvCM300RajBxorbeH7DmzVP9NRtnT5v2O+PtAVD+kHODvfT0tDyWRKlTIuddR8CsbuMT38ShE2WDCGQfbECexHxhjuuG7M+7id1a7q2j5gRniNaMOaYKeZuPwXusQ+R9fWt7EmqTG6VT0eBgS25j3TMug+BzmSGfJ2N6FkPJfYbGCnP13t7QOVOVfA+r3nO7xhhO4coNGOx859ipGK/Rfy+FtG2HFUMRAMdyiUMP806ZHQ2QTAjOYVUpy/4/U01mkvTJyQp2GbKdn1EIW0T1jWYI2RbsmWeHBVsUQnDT7MMGf348ePqf/7nf4oY6jWGuZ6ywRTTTMUS93eZnuXRhGixsvNGs//8p+kzwIs1TxZtjmLFb6xPsmmtbX0GZRCbT8HyOClbWyllPwyp9eBNL+kreG/dfxbCwCb9+uuvVdm7y9YmETKqKlp+MIfI2UYXPfYXx6W+UUWpZMTlfpRO/C1F3+/GnNvpj0E6YtHw5yfKpGolZD2fGqKQZcio6HearkCXV0sLoCkKj1kiHDokhEMrhcQ5LtUCGhLCsONaEmIuJTy1nK0gnOnJ5KUMVsrwtxEnwtuKtjBSFw++97hr9HDcKccewl4d032s1e9yZnLvWM5SEAh1nYUljVQq2zBOqeXeYyceb8nWJ2F8bbn1P3hjt+TIGDsfSzkRfZcj+DL0u2C7SLnl51GhY5mUsyhkKQiXcNcpWEoQYj8XBhxD7sGAm5H3sNySB+/Slr982RgWb7jBvHYSv1myOoNxJHFM/g99p/JcL5tjkSckO+6a73O26ySJMqGu/vHHq6pe/PFnXciOpjshH+hM/ljCi2IH8tik7pP8lARxucEt8b+RIv63tqku2ohTOfTh118Lny+5MTY/RT+Uhco9qtJVlvmKHmQ37JROGyazO8MzCFs05c1Ljq1cvGWWRy+HloU900DLwGLQfI7nG0uW/519399fvjjwsvz+PdYqGOJl953LXNbev8gP6kJTj6gUFNLrrMpFlsNOGdp1f39/+VY25mVMTY3H8vh7HIJqHq5fRrJGWNty8MttOGrXkE+/flsLgeV+van4fczZTxtr71/kSVMerqt0wLHPPSAK2fUh0GFzhofRogc6hej18z16/CxLHatvlFFbDN977+zX77spcg3xxeliHOT/3H4UsTyU8bu791fX16HyZUJWglDSq+q62GIoYF/EjdBNSiiGarHfNooCae0ONy9MXoiWwu9zjf13QX6Sf6TUPRL7kvNIo6z6EM7wdrS1KvjTpw8vyQEEgef7/DN+qakrWM9i+f7cum5BylDFUsY63sO136lHvi61CQeC5c9zbim2Y/Kf1pG9c6nt+HvB+UWHIZ8afB54+f7bqhn8bs2hawuTXR8C/Qc5PxreR1O1j5XoE7B+gfibxy+3fgn+2+cIy/02XX0PKeL2c6EPJI68WWK/a5DDOe5FV5nbEuwU9ionEIXsQkalji7ayxNt8/StVcB5kaa0XNiH7SfGvONbT7taHIqVP4aqyz0xSRANNsqHtFZLeyi5ho2yEYTS+w/apqdemzZjm9JdCx+ZEaLSDal4rDNVWGzbuJ2dhxnGHOGaLI2l4KhpMSAKuc27lo0gfPnypdjWAQZh63LTl5VtRort4m8xpm2tAmjTce/hthn0IZ3rQw2jGd626zLB8iLTdl5ClEpWIaNSBeEIkLV9BtAb+ogZUFIMD+3NEGHxbOF9x/xRWGw+XeVzD9RCWJFPnz7VTyiXBJ5om8e6Bn7IaMpz53w8JhI2UMI87Ggw/TMF/G7eNp8Z3cT67Iv/KWNr+yV5zaeC+227YNSRpciWzzwMjWzG6+m7PjEM75jsDfYqu6n6Lx3MhyejUx3E46K7X4qjdVKpa0RPXO6/k4ZMOxW3GUvcvm1wB8vXmgbLH9+e2hYNZ86b9xldMHqQRQuhtBfq4wkfhZRH2xSNB+b058dh2L41sDW0OLYYFr7XAIEc2Os9G3uhkNFKlCIIMSyzB31ZmTLWiATbkSwmn4qDP/iCfxWWtli+37c9HJeC7cf2B4h9OXvfSG7T7GQhCCUNOT1CBYnZGQ13G3jYbEtCNPri4GNaAuy7y4NHSP2xu2A/SzHmGgzN0/RALBOFdQMWRzaCUEKH8ljDshV95+VbBZ4ucfPr2/7nGOquMIxvkQwVtyH4fOnLIzu2daiLB8gXawGeLW9ye7vj4QXBYnA5h4yoBEcsF12tWa+/bZ4565ghfPOmeS0jqQvWRRhS70IAjmHJjxj65ZfLhwUwo72Gccp5tBD57fN/SawFeDYufbX50PQvH5cc5wTxPJjM46ch55taJy6z2+V/j/h5gzy2jLTGbY/zFfUdw9Y7A+SFzxsxH40yWhieUM6Ro7YKuojnGxtlTZEZjpmWFEP6UuZ4lLRolqDrGo4E3v3cDvczevBrQ6dyTn2gWfQh5BguKmV0hTeGCMaQvgRvWEwYu8TR79Ne/j/1ltux5hrHnOBamQo8FdYbC/eOe5aDCIrlyUIQcmNupTwyqWHVxM3Nk46GxHcGD8kXRhlhlJbwVoeIgrzixyDEOfeDHJGcohwShIUpQQzMqI/1OFnXp6GMMcpTj2GY95sSrz1BvCyJciC6oZDRgpQy5PTIxNFG0dDiMbKOrYch9V4k66dG7FAP/Oggv02XUWZfNmIptV9PnLuIY+Dl8izAnt7/GBuACLC+pbFCx3Vy3ZaEmMrhX6HJON67qsTn0o8wxWs9OpQQM1ptYIhiX0JfyYp5ZevH5dx6M+5t2xwJf45Dzi+Vt0e8LjEehs2/qDybg5vZGl6hqU7lhSmlIntPc6jIce3cKlLMBwuHkCA1K+kQ2C+tBgv9bAViN2WggF1vF3u2ZMS65DZ1RRYthBzUNTLUiB4FsnjMOcf1/S0yI9jm1SMYhHT8S/LB9hHX3/v2Iz5eDPrOx5+/b92Ic5KLDTt8CyG7ucQzJhrhSKqRRhkn8Zt5/OxnSCy8a9ZR26+lNeDcfOoiDhIZ01KQGIicOHzIKMdnEKC0zj0Mmxl/f0swphj/6O0bQ0NDSxt+H54aAuc59Fz77i3XsnVIS4glOHwLIbcYnJGjjnlDFwd2YfgxsN77H2JwX75s9uuTec0YTEsprK+A5MFw2yik3367LHTw+5BWylDi+Q9h6HqifHJ6WvnQfQhkIg91vM+0di1hjI4MJcdf45CSRLjF386YR7aPuJwnmC3MZMJkxOP2/W6MPXchpvC6KpDYsKNHOw7fhyCORcpossySB2NLMu/efzdDPGXUzhCGxu3bzl2IsyJBEEIIUXP4PoScn1Iu0fOM0Tvz/M3rB/+5jaEduCmGtADk/QsxHrUQxGAw9D7MEzuV4+/QNa9XV9dQNORxmKoMvhDLI0EQixKNfFsDL/UcQjTuMvqiBOhMzmXG08MLQu4Pp+U4/NRIefDewPO0MetwjfYZ+G/Jrh+jTqjHnmcwZPSFOBAMOz0qHz9+/Hl7e3v5liec/mOzd+wEqc/2PfXqy/gdbJl/g6Ata1t36HLo+g3aXtHp8ftg/a63Hfp1hzB2ffDbdJ1LG377Ofj9zN1XZK39ptjyWF1cXd1e0mXBQUEPFDISj+jqHI59BHz3/Qi2vt/OXpAT9+WHo3qsszn2T8SH0/qI5zmH2AHet794rnOPP4R4zJh/R2DLc2orb1vzcNzmwZgj3hePBGFlLIwi1mPK8wypzu89w7xjOuPXJPVA7ZT8FR7irHkYgkMLQq7TVnhUmdZniujGbegb2XOEc+p89iDV5yWnZi5kah6diWohiEc0kcQG/xn47o0D3/0zAba+347OZoj7sqZ0XG6jj+KzBmOb/PE855Aa8tpFPNe5xx9CPOaQZzW2ZstzaitvW5PDffFoLqOVIWaYaobnANkeWzh4rhbOYH4hBoHx/dmz5hWbVABfCfA4zeu0fEh5oUKIfWEuIwnCymzRobgXGPYodpQmf83cOgQi5oOVOr/8uCVRiPLR5HZicYZ2jqamroiiwXdLQoj1kSCIweDB+8ZajIfG36Grc7Srwz2KQGrop8RCiGWRIKxIicYqGnFEwJLhP7eRmrpiKEPGckswhBiPBEEMJmVc2wyviYR1MPvvJhhrdQ0Nffin7dyFOCsShJXIcWSRN9CpUE8cHZQyvN7Ikr5+fRh55MXAMKGwZPCZ87HkWxQMZWVEE+nNm8tChw117SKKACGpVL8GcC/9NQhRKoceZcTEdjc3N1d3Rx+8mwDDUdJDaVZKTATslnjDyjrR0DI0Nb6AH2Fh+7jtksTzjKTOE1KhLPblBX7IuXLv12oBCbEGGmW0IiWJAWAUMaIYxmgcMfBmUCND+wqigZ4LQjDGj+A8h55r373lWnAIlr4mIdbm8ILAswhiffq83tRtwOCZSJgxNYEgde2zLTwDtl9La8C5+dRFDJ+N8fxTYTUhjsqhBSHXuYzWMmJrEs85Gr3YfxDXt9h6KlSDwTWRII3x3CEaVTz0LVtg1ndA6hOPqZj4WRLl8Dojr+DQfQjwpKod9CHw1qEcKLEyU0Io012NNQQkGum+khXzytaPy72ItG1zJPw5Djm/VN4e8brENLBhBzezNVn0IeQiBDnT1xDDM2bOItZ7+bIxVkPCJhi5335rDCTJWhEG+/HJYN82iojPXS2KGHriGBjYof0Ba8C1cM7+mtbGWjAxj8W+fP36tSqLOxbGkRy+hUBzC1HIZT6j6MHmCCWi7Tow0vGtplaC4jYsf/Hi8fqpdceUwNQxPP73KeGpvfBRhbHnHFsYY/JTrEtO87GphbACJVRGM6pk/ZjrYV2fhuKNYR9Tj2HgQXN9lo4CImBJiL04vCC8evWqVtmcmGKociEVXqLvoM3I+ofEhuSLN9hzGWJcx4jRGSAEpzxZDp6lwoblwuEFIVcyiXD14g0zBj1lZOO1eoOCge/z5v0+544esmOdydPmWnkOZGyLLgUPEeJ/LSHIohGEnKIcEoSVMEOYE/F8Y8NsrJHo8vSHCOYcT3WpOth1DUeCfsu5IqiWgciiDyHnh9Mwsrm0Frzha2vl+nUwQCYizClkI4NY7o1LNKjcTgwY23aJpg83+dFKcX9jQKi5H5a6jKg/zpxj5sKQOaDEOH78+HH5lAmMMjo6lSj8vLu7u3zLlwcTmFeqsr9O8Rpubx9/97B+6rfUsiE8fz5926n44w09Jnki/oovQ2fiNqMCgR4oZLQhTZYfj77zwqNPedJdLR+/vu1/Tkiiy3v1LYclPXmfL315ZMemBUISD5AvlCGS8ubYZCMIjOUtgSOGj4YaUQw6sXnrvIwdwKknlfsMqcG+SW1zHGFI/LG7mCM8kTHXYHz+fPkg/lImCqnGg7k43tlw+AfTgD6ED1XJynEa7BRLerFrQInoOkdfYvx6qe1i6YrrQ982fcTtEY2ti4o/B/pR7u8vX8SjvNnj3uwJTyl/6prJ8UBk8WBaiYw1eGtCBY2kDOxUYl3g2i1tTVcLZEnUOdtORkPyFyG3CTqzEARGGjGel1QKGMQjhI+I6wJGP54PyzjPWKYJ3yAaJhyMgW8z8Mx9xPoYY/73xZCjwfDbtsGxOQdL0QNFBDhXrjW+rGcpOAcSx+67RsPy0PKxVCxvSEPzpgSwV0+fPr18ywRCRjnASKOceuzH8LjKbJPiKCAbAeKXxWTE5XH0CLfJbhWDw+L6Q4nnOJWl9rMk5I8/p0KL9ub4PN0b7FVOoyPRg2xCRkwOpZflrAdZ2+epdnXWem+XlsaROs/HxqznPi09hJg/R8qvXFlyMMFZUR/CAUCbtw419mlr4y/8FbaLv0WD6ytmW/8DoQMvIimGGPKhxrvxGduvi/Oxc/LnJsRUqhZCHe7OiWwEwZ5YLrWVsFdHZJtnmspmlmHszVB2GVgP65jBHbK+x7aN29l5mPHOEa7J0li2aMWI6eRqp7JqIeSmtmPAsO1Bm2ExL3+qIQf2YfuJYaQ4Hr3LwCmc8hgvhLmK4RrQosREkKaU1yXhuSlaCLmRxXMIBuN5yeiPDCUplK0qOJWGQVt+4JZlqx+Jw3oWuvHnFo00gylsQAXzFMXriKWMuuJFwH7HsfLOVVudYuSQP8+5pdiOyX/EykY7Ha1Oc34mskY+Nfg88GKvt1WzP6u3pUFOgkAzjIzO6JQnQYX3RvFImBeGMffGEoHw3/sEoY22N6yNxQvOWsXFrnHr4jg1b8V2VKa1ui953Rj0IMuQUUnPI6QY0pm6NjYbaWRo1vtt/WeMGWltz9u3PqIBXQK/zzX23wX5Sf6RMrM5p4BZFXIMF0F2o4xK7kfwLFHRY1bxPZZTlqWO1fdEaVtcP4aB/L694dR8P/Mg/9W3cjzM2clUD/IUBD2PMIyYTXyPBRWPP8akgTi6N+4e1idh7BEUExqrDPyf6jVj5GyfUag4n7ZzEmJvHuoRlezV5DqwJ1n1IQBiQMgop86aORyhUGGcgVCWPx+WW3grdvJCLFl+27ETwCE0sfXRhV9/rRJuBuAIIb6xjM1P0Q/loXHCKOhNhuaUr9n1IQAthNL7EDxLTQYWH3xjRFHUVAwbBdgEwGB5n9FjzqI+LMxBshFNGCYSlYn/Q+lrKbAvrqWtQvI7HdikMcf1DMkXg2NYOgIK2S1P8yzRh6quvavrW5YhPVoIufH+/fvLp/L5+NHM2vgU5/CZmtiPJb8cbDnnCXFOnrh+xP9Osv1EuOV+vbn4fZE4btuxl8Af6wjs8Qa6M1A5rNm+3RE9yK6FAGdqIcyJjMU+hOaWPwYvJrUcT9aWsx9Ltj6JEJAtt3CR94oeYqrzsfOxlBOxNdPXutkCwnW0BEm55eeRIaSd88CXLAXhbB3LS1XYMf0Re81bP0UAuS6fpsBx1+qWiqGDo4QSxoS8RD+5iwFkKQjAWF8xjK64NdmYMqJLlOshxsY8ft8imcuQomHHtSTEXJhFQYKwA7ln+hTmGK0oCGRfan8st6w1bzuuR2eZhYL8b21eL53HqePFBl7c3o5vqY1cGopcvyVRJjyM9mqvpvVCZDfs1GAKCzI/1ycCp9BlGPtgnqEfP5rPGGjKbfSkrSTE4/gS4n+LI5XidqmRTF3bGw/D9x7oKqUUARs1w0iPpYuEP2cZ9DQxz09ULWu+fv169b//+79VqzjfGBzDTqsCnif05Fcthcu38xBH+gxNcZSOpSH78/jlMfv9b6nfoe93w69H2os932zmj3tkYh4d/XzXgJGPuY4uMhCFbPsQrGP5TJ3LYCGdsbTF1VMODcewBHjI0fuHPmdozu8UTzuHpqhOx84/dQ197NUhHD3sJUdsieX5/v17VVYvFSZjshUEOGNfwhiDZAa1izY9TRlrDOqDD/iwjIQBG2LEbds+sQDWGbJeF9GQTglltPWDiIatRPLIPN/6lYcrkbUg8J7lM442GmqYMPapWLw3inM8T+9xWww/GnETDL8uRKGydfoMtt8faQvo55grTKVjjsBZhfMSccme7FsIZwwbdRENbYro0WGEfYUG5ibaiqGG/UzaH4Xx6IJkjsAZhROntJQWQrajjAwbZXSm0UYwxjsm5IExbXvAm0psQuD3y3Zt25DdJDPSb95cXf3+e/PZQKd9C8Qfx+OPye9tRiXuD4aUXl801iwmWx1HHAtGPPIWx9xFgVFG2QsCXEZLXb6dA2+MI2Z0uxpOZBfbs46tx7Iu49xnuO18fAuElgbhpDYjD36/bNtnTFPHOQL+OriGo52fWB4LWRO+zh30IOuQkWGhIzEOyrDPNm/QoMuIRzCAltiP7WtI/B0hstQnBsB5L13/vDAKcVaKaCEgBih1zg+FjAXDaZ7yEDCgvPTGQ3ZFEfClwf/Gcv89thBS55MqWXGfXUxpCbDNWLHoyoMxjLk2UQYlRSeKaiHAmWZBHeJJRzDg5gmToiH0pPZPuSerU+GiKXQJGufGOZC6ztNj29j/qUwdeWX5Q9/L3pAHlsQ64ISW1ndZhCCAwkZ/xQwUYHxTBth7012Ojm2LEJgYYDjbjGdqX10C0EffqKejGD7yJjUdh5iHBG4jCBmVwtu3by+fzkFqOopXr5r/TAvRNl2FT0ZcHrf1T+WnprtoI750hv3ycpY3by4LWoj7//e/Lz+0ENfnOENhXYoOacx2R4V75fMi8xkVRpW3rShx6hwJQiHEytKVDL8sNRdNNCKsY/P4DK2gfb8PYezcQWPXLxnu05pvgduKIwoCpjP3uYsi6EERncrGp0+f6rHA1qdwBvqa0NxdW8ffab+dX8doW5cQUyquH0sRoSQfwYu/eyzstES/RE6c9bqnEMvrnpQ01NRTTKeygRDYzRIPWAWiUpFSWcQ66Cipq8LZSCXW8WkqnI/v5N7yCek9idctulmirC1FyQ/BFiUI9qTgmTuXcVp8pUkJQJtjYx3GXZ3FbcT11/J6uR6ftkb+xrnBtuB4ltY6MIoSBDhbKyHlNUVDGR0anz2xXLOtea4pUUi9EMq24b/fxs4tnt9UxoqUh3OzNBW2tXDZnP2IfGFoe8kh6aL6EIwXL17UCv7uJOP/+owT5fdvf7u6+s9//vpGsSqramy53xfbmadvjS4aYTzu4etE2zYRCwf52xLFKn73IAh2HsaQ0hu3m1Lipx67C3+tXdctjsPNzU09b1GJ0IdQpCDQrGPCqQIvLUkUBC7bL7NsiMvaDKWtl8q+IftN4deBtvX64JyNMWGpIefYx1LXIPIEu0IqtQ+huE5lgyYd6Sx9Cd4wpUKbGLJYhqNx87C/lLFri8TZ+qlt2ph6axABS2Og5UKa49xxfeTj2GvNHfWbNHz58qW2KyVTZAsBEIMzzW8UPeBo8C3U44nr+ZKA4TNDYMv57oVlTMmJ58NtaatbbecktsXfBxyNQh3jwVQOdFUeyy2QxbYQwJT8LK0Ejw+r9EH5tuSxN6CBGYYhAytY11IXbWIQh5327Udsgy8PZ6TEeYtSFCsIcNZXbKbAmGOELXkBGGrEAc/ewiZ9+P154Rmy7RR0q8VaIAalDjX1FC0ItBJevXp1ilYCZZWwEG8uw2hjdG0ZiZE9jCRi2CihI0YXYdij02NG/Jdfmv/g6wFiwnc8eUvGmJZJGy9fXj5cGFIHOQfOm2sZKmwR8iSG1I5IzPM1Ie9J3PNCB9YMggEqp5lanz6E0qmU/fKpbLwPHr+TBak5YVgel/XRNbdM2/KIP+5c5s51E7cdu32EKW7WmFMpXqdYj4fyeVunM4AeFN1CMM7wnoToncfwSXw5jhFbCE2xeMyYUIxVI0tt+H1O8eg9R3PeuBfWWhG501SQJVq/OXAKQSB0dLa+hBhqIVTUZji7DPjcUMxWcO6cZ9t17MVZDEmZYDMQhAFxy0I4jSDQKXTGEUcRM5gpw4nx8gaszZgdNZw6pL8hZ84Sxj4O5xIDKPY5hAgtBASh5M4hM+BDLjGuG71/SgXrRA0dU1r8PuN2ePPWaBuyz659LYFdJx2oc1n7XMX6YCtevybO2gjCGe4jzyFUF3oeqpZCsR3MvAilKbZNhxj4jlvepAaxY5J16AT1y0j27g9+ZxvS2Kzz+2P7OSy5LyH6wFacjVoU7MNZYAgZ44kJI5VE9Oa5q0O8fsIsqQ7QoaWiyxv2v5HdcxpnS+5LiC6IJjBcvTQb0UfRTyq3cfaH1doMKcbcpylYGMpgP9SpJQw44+Cn7Ash8UmIPuhvPJsYGKdrIQCtBG54aU8eeoNnd9WWWUtgKql9g18+x/C37X8OsTUE5yvtYgzmLJZmG4ZAC+GUgtB0GJ1neuwxpATEG2tYWhCi4ZYgiD1ADGgdnNUunDJkBLQOSKUNQ8U4R+Nty3zrwJallhtDJzOj7iAEhHTmhoWWZsnz8XkmpnPkPEQMSGfmlIIAvPXo01aTwmyAr2T2GQ/ZaOs2GWL4aS3YnEjMlRTB8Ha9nI46xtxJlmKdY3s7Rmr/c0Cw2D9pquMXi4lEYRo+H4+Wh0QMsAlnDBV5ThkyMhCE79+/F1EIYgXjrraFYvy6GOH7+8uXCvvNh4zmkqr8S5Q6v981SzGG7Obm8uXCUsfb6hq8c7Bky2kMbeVxb87cb+A5bR+CwRxHvH+Zh9VKGFVgld5X+DYDb+syA+oSr55m39YKiSVqDUHY2rjEa1jieGvsM8Ua+T8Vfy57nYNH/YkPnF4QAO+g9CeYt4BQkJ9DMJaqpY3fUb3NMZxREI5GSVGCuaAHp+1DMKwg5P5sApXe0lrMOQYGyCchjoDE4DGnFwSgdVDi5HfegEcjbstiP0Hb+pG99dM36HIVGM6bSCVpzWuQAKfBCVSo6DEShAv39/dXnz9/rpuQuRF1rE/XvLHvMuxdvzGdtodhpzhapDl1jLCTF6UuYeI4U4+FEBJ2IkVR3BKEbYtopeXVnDwrCZw/0rslOtAK4vR9CBEbfvac4TcZ4Q2n3dFoTPuWQ2o/HgzomgYMMeMYHgz2kq16hC6KgF1TAWMLRA/qN0yjPoQExBNzfDgF423JsO9cji/7LLNQBZ69J7W+Z4k6hOhEUTJSBlkhXrEUiAH1W2KQRi2EBDc3N3UrISfMqz56Oe9qnXjWvp6h5yHKonKCa0FQR/JfoYUgQUiQ21A0b9w45T0bOD7ckzLmMsRiL2wkocQgDXqgkFECHlLLZdRRV8cvxtdSFAm269q2DfrcY4zf4DhkmaVo/EunLa/F/lgnssSgGwlCAjqUiTFa59ORiaN9jDajDWa0SL/9dll4wYwaKTXgiikczNhPGZBFi4A6SVq6deDPPV7X2nBMY4rQinWh1Z9bGHgPFDLqIed3J3gjxemb5+qXt81lBHTwxrDPmN+3Llld17U2/tigWnUccOzO+Aa0sShkNACEINeH1jBK1hIwMYgwl9FUUn0EHNPSnsy5rin4683QdygWG1UkMRiGWggDQAxoKfDw2tGeT1jDI7dwU8rg74Fd45DrO9q5L8mYfBAP9ZbwrwShH1oIEoSB4GmQVXgbRyGGKVIhnNzBwPvG2VlLq/JhPJV5q+urOpKHgR4oZDQQChVDUXMBsbAkxNmgZSAxGI8EYQQULgraUfoTYlm3uHkUAf+dBg7eJqmtscPl+amsp8A+urKJYw8Rra37AmBIHm3NHvngIR8sHRXO7cUL3nFyc/X8+XuJwRQIGYlxXF9f/6y8j8u349EEFB4nIy7/+PHywwX/W4r377t/B78P1k9RZeGj9Y6Unf68SDGPzojPD+7dEWnO792hz/HIoAdqIUwAz4Pm6FFHHjW39oH4vY04fj41nt4vS3n2eNVDiM9PyJkT86FwtjyYIwYhQZgAIxYYubBn+Kgv1GL+Up8YHGH236GCtReaIfkxRxy40ExLQTyruVkljjLbAgnCRBAFWgmIwp50iUIKEwnirdEQRy99itc+tCLa8Y8oBl15dFa4r0fND3vWACfN7p2YhoadzoTC+OzZs01ftIEzROU0tryDTFfx+XPzOQcvzPRaHmOZ6FmD5WDYqQRhAfBOKIxbFUiiVL5h4u+gbzEwdcuZwx2x9XT2/CgNnDCblVhiMB89h7AQCMKXL18uccz1oewjApbaME/esH6HsWGmUoj5sTW06s6c/0vCZHUvXrxQy2BhJAgLYWOe9+5TaCPOTJqjUTJjOtWo7h028v5Cjvl/JHDA9JzB8kgQFsSarmuJAru11AZhEWtBjDWA3tj6Popc8a2orpaUyAvq19u9n9QrFAnCwpgo0KRdEkSAvgNLbQabGPkUT7hLZDxc1tB1h+BFqAuuObJRhE4cCMSA+qUw0TpIEFYAUaBJeyRiZ+pUj9m/IKcNb+S7WhpRWLr2mar/uUUMrPVGUotlHDaaCCFQqGg9NMpoJb59+/ZoSOrcabPxzDHGBnXCjK03umZwpvDixeVDhRkvD0LgjTgtkdSxvGHvelEN+4qef1dpjOLSJTaiDH78+HH1j3/8Q6OJNkDDTjfAPzSzVmGOnvWad9Qfq+04QwUBhuxPnBdaBRKCbdCw0w2gMNsTzUed+2gMGG1LbfAb9ZfU9xrLIfs7CoiXTzmQc5GzFrbEYDvUQtgIaymMfesaFZruiK6waTRO8Y7633W3p9OXz0cj5/s+tb6I6ShktDEUcgr4mBFIQyu1xfZTI4wkCPOpbt1f+iza+lCOQOyfyem+U09oTRNmFduhkNHGED6ic4wCPwQz8kOg7qTqTzzUwEOLQKqFpkjG8kgM9kUthI1h1MTvv/9eC0PfpHhxZNHUO4Vna0IQ9/H169XVr79evlwouUSYlx+9/SHEbabsY0s4P8KNvHvi6Of6tSqI//d//1ed66vOOiHWgxZCVfnFXtze3mJ6J719bciby4bA28BsP3374y1UOb+Jauh1im2pWgNVudIrzvamFgX7IPbBOs/GDktdqoMztkIgta+ljrcnJVxDaVj5V+fx/tBCkCAchJvKKn/kabCBLGncfF9FW+h2zPH8umuULr9/YvtDwyEShGPBUGzQcwbHAD1Qp/JBYLKu6n5U6Y/acEXjtSbWIb1EP17sCO8z1natU695zJTWXgAkBvvQ3GfK+JNaBNZ8YFOMR4JwGKgUWE8sav9QoL55cTDMlpZgK2M6YkTuJDh3icE+NGWRsbB8uKtbBuJYSBAOQhM+pYLcVwmL9eHq5qbdOtqspimvHi+MMeiWlhSFPmMaZyUe6/y9fHn50AF2hPwiMYKmJBDEtUVxD5jb69s3Rg8hCBQitQqOiPoQDoYND8XoTR2THUMvGOUlwkFr4a/5zPj7Rl4cfajoUPzACYSg78l7sQ/0IUgQDo5N+Xt7+1CDhtwxb1za1reWw5HF4iwgil4Aji7iQ8CZQQxgrFMjtgc9UMjo4FCRGkOBhW8qV2wBpEAELKXwYaWlQkpiOqV5zIiBOTMSg3yQIGQB1gJVIF3iK6Jocu8boWWAEKjjOC8kCNlAxTJ3/0ntgYmy8K26XPsPEIInVfOTYdQaTpof6kPIBG8g3r37Vs+HxPwvzPtiFQ+NGFoH/f7ajE98irmkjk6xHMzei4PCk8YkyqOeOs4P+hAkCJljIzgqU12l94sabfoWYkNEpeUxsT/nbPlj/QQKDeUPeqCQUeY0FdEE4UM9WmVPEJEzd1Lvnf9bYZ3GzE4qMSgHCUIRUCHNNV3OGo8dHOJHLg0ZCSXyw4SAhBA0rVNRChKEokAYXtVhJBv/PRdCID61Mefp2r286jVaMyU7y5QpCxERaVancXlIEArAjDXO2s+fjceG57akMKwBrQgS522fx8ClxT6OISACHGuJ1ozle5P3l4UFQnmidaChpGWjTuWCoQKTnlQW79Onn1ffvuHR0QHYGLClifvsO0bKEA8tjX5bQltjnFUEASHwqBY00NJjnizmHvLlR8NIy4dOZQnCSWDK4aZ/obHSP3/u7+UtJQgIz1inNR5btcDy5FuVbmqB1eihc4EeKGR0GvDuzOodI5yEESZh0O3zFKbYLDvenOOWRFMUcBp48IQX1ig0dEYkCCfhoW6/rwxgYwGtn2Fv5hp0MY8mNETrkbLAW/uasKI4HwoZnRwbNQLeIyTGrpBx2eAM4BRYaOj164cbLqtwPhQyEn/ORGmthSdPSMsPxxTHgRYBjgD/uf8kREGtLqEWgviTxlDUn6r04+r586dXHz9e/9mCEHkSRwxR5f0cWEIALQQJgnjE49E7Tf8CrQcSqKMxHxCAm5ubeqI57psEQHQhQRCtVLakMiCXLxWEkzAwIONyXLhHdq+4Rx8/ftTMo2IQEgQxGgyNdUSTxr7aU6yD9QFxT6wVJ9EWY0AP1KksRoGRwYfgf9NgIMZEaAnPlO9iLQjn+ZCeiTPpy5cvjzqIJQZiCmohiMkgAE3XAkrA7HbPq+/X9ZTIMkjL04gBTxJ/q/L3ISykEJ5YAoWMxGwQhMo5vXr2jDlwmj4GRrWQquJ19d///vfq6dOnfxos+3/po67xn0WDjQwC/n/58rxaVn+teH51f6+3kollkSCITWgMWqUaFc1oJUSB1MS6VQKbPALfIRz7Any4SHkmlkaCIHbh9WvGxH+uPhFmomO6MXhnCzVh+D9//ly/k9iuWx3CYi8kCGIXePjt4hBX/FEJQtN6wECad2wGMSUS3lPGfh4t5BQ9efP+CQMhAGDXadcXr1GIrZEgiN0wo5kqfRhLCzGZSBAv5+lauL19Vf01j3qeIDRPZo9/XWgKzrPZH8H+xvBXS+u/GHyugfcK2HchjoQEQWSDedeVza0NrxlahMFsazSyeN9GygDHlgZEcWmO9VcQLOs8h4f1OA6dvY3h//lThl/kgQRBZIk35H//+7erf/yjEQzPjx8/6gTxN6AB8mDrv1Xi0YzYSTnubaN5WG6/2X8E5RIVqloDxwtnCdGGBEGcmiEtBCHOggRBCCFEDXqgqSuEEELUSBCEEELUSBCEEELUSBCEEELUSBCEEELUSBCEEELUSBCEEELUSBCEEELUSBCEEELUSBCEEELUSBCEEELUSBCEEELUSBCEEELUSBCEEELUSBCEEELUSBCEEELUSBCEEELUSBCEEELUSBCEEELUSBCEEELUSBCEEELUSBCEEELUSBCEEELUSBCEEELUSBCEEELUSBCEEELUSBCEEELUSBCEEELUSBCEEELUSBCEEELUSBCEEELUSBCEEEIIIYQQxtXV/wffUA0pYO68DQAAAABJRU5ErkJggg==;" parent="1" vertex="1">
          <mxGeometry x="49" y="33" width="202.87" height="206" as="geometry" />
        </mxCell>
        <mxCell id="JUZGIfeuZXsMgJHWFW5o-2" value="" style="endArrow=blockThin;html=1;rounded=0;endFill=1;startArrow=blockThin;startFill=1;" parent="1" edge="1">
          <mxGeometry width="50" height="50" relative="1" as="geometry">
            <mxPoint x="150" y="260" as="sourcePoint" />
            <mxPoint x="150" y="20" as="targetPoint" />
          </mxGeometry>
        </mxCell>
        <mxCell id="JUZGIfeuZXsMgJHWFW5o-3" value="" style="endArrow=blockThin;html=1;rounded=0;endFill=1;startArrow=blockThin;startFill=1;" parent="1" edge="1">
          <mxGeometry width="50" height="50" relative="1" as="geometry">
            <mxPoint x="30" y="140" as="sourcePoint" />
            <mxPoint x="270" y="140" as="targetPoint" />
          </mxGeometry>
        </mxCell>
        <mxCell id="JUZGIfeuZXsMgJHWFW5o-4" value="1" style="text;html=1;align=center;verticalAlign=middle;resizable=0;points=[];autosize=1;strokeColor=none;fillColor=none;fontFamily=Garamond;fontSize=16;" parent="1" vertex="1">
          <mxGeometry x="224" y="115" width="30" height="30" as="geometry" />
        </mxCell>
        <mxCell id="JUZGIfeuZXsMgJHWFW5o-5" value="1" style="text;html=1;align=center;verticalAlign=middle;resizable=0;points=[];autosize=1;strokeColor=none;fillColor=none;fontFamily=Garamond;fontSize=16;" parent="1" vertex="1">
          <mxGeometry x="144" y="32" width="30" height="30" as="geometry" />
        </mxCell>
        <mxCell id="JUZGIfeuZXsMgJHWFW5o-6" value="" style="ellipse;whiteSpace=wrap;html=1;fillColor=none;strokeColor=default;" parent="1" vertex="1">
          <mxGeometry x="70" y="60" width="160" height="160" as="geometry" />
        </mxCell>
      </root>
    </mxGraphModel>
  </diagram>
</mxfile>
